# xmcd
#
# Track frame offsets: 
#        150
#        17387
#        27465
#        41340
#        51365
#        64777
#        86180
#        98317
#        112322
#        122402
#        138432
#        149327
#        163142
#        179412
#        194352
#        211410
#
# Disc length: 3023 seconds
#
# Revision: 0
# Processed by: cddbd v1.5.1PL0 Copyright (c) Steve Scherf et al.
# Submitted via: ExactAudioCopy v0.95a5
#
DISCID=e30bcd10
DTITLE=Various Artist - Pickin' On Garth Brooks: A Tribute
DYEAR=2000
DGENRE=Bluegrass
TTITLE0=The Thunder Rolls
TTITLE1=Callin' Baton Rouge
TTITLE2=Mr. Blue
TTITLE3=Against The Grain
TTITLE4=Much Too Young (To Feel This Damn Old)
TTITLE5=The Dance
TTITLE6=Two of a Kind, Workin' on a Full House
TTITLE7=One Night a Day
TTITLE8=Longneck Bottle
TTITLE9=The Beaches of Cheyenne
TTITLE10=Not Counting You
TTITLE11=Standing Outside the Fire
TTITLE12=The River
TTITLE13=She's Every Woman
TTITLE14=Friends in Low Places
TTITLE15=If Tomorrow Never Comes
EXTD=
EXTT0=
EXTT1=
EXTT2=
EXTT3=
EXTT4=
EXTT5=
EXTT6=
EXTT7=
EXTT8=
EXTT9=
EXTT10=
EXTT11=
EXTT12=
EXTT13=
EXTT14=
EXTT15=
PLAYORDER=
